<svg width="29" height="16" viewBox="0 0 29 16" fill="none" xmlns="http://www.w3.org/2000/svg">
<path d="M0.5 0.5H28.5V15.5H0.5V0.5Z" fill="black"/>
<path d="M3.69414 12H3.34614C3.25814 12 3.21414 11.952 3.21414 11.856V4.932C3.21414 4.86 3.17414 4.824 3.09414 4.824H1.35414C1.25814 4.824 1.21014 4.78 1.21014 4.692V4.416C1.21014 4.328 1.25814 4.284 1.35414 4.284H5.67414C5.77014 4.284 5.81814 4.328 5.81814 4.416V4.692C5.81814 4.78 5.77014 4.824 5.67414 4.824H3.93414C3.85414 4.824 3.81414 4.86 3.81414 4.932V11.856C3.81414 11.952 3.77414 12 3.69414 12ZM7.5212 12H7.1732C7.0932 12 7.0532 11.952 7.0532 11.856V4.428C7.0532 4.332 7.0932 4.284 7.1732 4.284H9.9092C10.4292 4.284 10.8412 4.436 11.1452 4.74C11.4492 5.044 11.6012 5.46 11.6012 5.988V7.128C11.6012 7.576 11.4852 7.944 11.2532 8.232C11.0292 8.52 10.7212 8.704 10.3292 8.784V8.832L11.7572 11.856C11.8052 11.952 11.7772 12 11.6732 12H11.3012C11.1972 12 11.1252 11.952 11.0852 11.856L9.6692 8.832H7.7732C7.6932 8.832 7.6532 8.868 7.6532 8.94V11.856C7.6532 11.952 7.6092 12 7.5212 12ZM7.7732 8.316H9.8492C10.2172 8.316 10.5012 8.216 10.7012 8.016C10.9012 7.808 11.0012 7.516 11.0012 7.14V6.012C11.0012 5.636 10.9012 5.344 10.7012 5.136C10.5012 4.928 10.2172 4.824 9.8492 4.824H7.7732C7.6932 4.824 7.6532 4.86 7.6532 4.932V8.208C7.6532 8.28 7.6932 8.316 7.7732 8.316ZM13.8354 4.416V5.244C13.8354 5.372 13.7914 5.612 13.7034 5.964L13.3914 7.056C13.3834 7.112 13.3474 7.14 13.2834 7.14C13.2274 7.14 13.1994 7.104 13.1994 7.032V4.416C13.1994 4.328 13.2434 4.284 13.3314 4.284H13.7034C13.7914 4.284 13.8354 4.328 13.8354 4.416ZM16.0759 12H15.7279C15.6479 12 15.6079 11.952 15.6079 11.856V4.428C15.6079 4.332 15.6479 4.284 15.7279 4.284H16.0519C16.1239 4.284 16.1719 4.308 16.1959 4.356L19.8799 10.692H19.9279V4.428C19.9279 4.332 19.9719 4.284 20.0599 4.284H20.3959C20.4839 4.284 20.5279 4.332 20.5279 4.428V11.856C20.5279 11.952 20.4839 12 20.3959 12H20.1199C20.0479 12 19.9839 11.956 19.9279 11.868L16.2559 5.58H16.2079V11.856C16.2079 11.952 16.1639 12 16.0759 12ZM25.4251 12H24.1171C23.5971 12 23.1851 11.848 22.8811 11.544C22.5851 11.24 22.4371 10.824 22.4371 10.296V5.988C22.4371 5.46 22.5851 5.044 22.8811 4.74C23.1851 4.436 23.5971 4.284 24.1171 4.284H25.4251C25.9451 4.284 26.3571 4.436 26.6611 4.74C26.9651 5.044 27.1171 5.46 27.1171 5.988V6.528C27.1171 6.624 27.0731 6.672 26.9851 6.672H26.6371C26.5491 6.672 26.5051 6.624 26.5051 6.528V6.012C26.5051 5.628 26.4091 5.336 26.2171 5.136C26.0251 4.928 25.7451 4.824 25.3771 4.824H24.1651C23.7971 4.824 23.5171 4.928 23.3251 5.136C23.1331 5.344 23.0371 5.636 23.0371 6.012V10.272C23.0371 10.648 23.1331 10.94 23.3251 11.148C23.5171 11.356 23.7971 11.46 24.1651 11.46H25.3771C25.7451 11.46 26.0251 11.36 26.2171 11.16C26.4091 10.952 26.5051 10.656 26.5051 10.272V8.688C26.5051 8.616 26.4691 8.58 26.3971 8.58H25.0171C24.9291 8.58 24.8851 8.536 24.8851 8.448V8.172C24.8851 8.084 24.9291 8.04 25.0171 8.04H26.8891C27.0411 8.04 27.1171 8.12 27.1171 8.28V10.296C27.1171 10.824 26.9651 11.24 26.6611 11.544C26.3571 11.848 25.9451 12 25.4251 12Z" fill="white"/>
</svg>
